<?xml version="1.0" encoding="utf-8"?>
<!-- Generator: Adobe Illustrator 17.1.0, SVG Export Plug-In . SVG Version: 6.00 Build 0)  -->
<!DOCTYPE svg PUBLIC "-//W3C//DTD SVG 1.1//EN" "http://www.w3.org/Graphics/SVG/1.1/DTD/svg11.dtd">
<svg version="1.1" id="Layer_1" xmlns="http://www.w3.org/2000/svg" xmlns:xlink="http://www.w3.org/1999/xlink" x="0px" y="0px"
	 viewBox="0 0 30 30" enable-background="new 0 0 30 30" xml:space="preserve">
<g>
	<path fill="#333333" d="M19.4,0v30H28V0H19.4z M25.6,22.5h-3.8v-3.8h3.8V22.5z M25.6,14.9h-3.8v-3.8h3.8V14.9z M25.6,7.4h-3.8V3.6
		h3.8V7.4z"/>
	<path fill="#333333" d="M14.3,5.3H8.7v2.1H5.3V4H4v3.3H1.7V30h15.1V7.4h-2.5V5.3z M7.9,22.5H4.1v-3.8h3.8V22.5z M7.9,14.9H4.1v-3.8
		h3.8V14.9z M14.3,22.5h-3.8v-3.8h3.8V22.5z M14.3,14.9h-3.8v-3.8h3.8V14.9z"/>
</g>
</svg>
