<?xml version="1.0" encoding="utf-8"?>
<!-- Generator: Adobe Illustrator 17.1.0, SVG Export Plug-In . SVG Version: 6.00 Build 0)  -->
<!DOCTYPE svg PUBLIC "-//W3C//DTD SVG 1.1//EN" "http://www.w3.org/Graphics/SVG/1.1/DTD/svg11.dtd">
<svg version="1.1" id="Layer_1" xmlns="http://www.w3.org/2000/svg" xmlns:xlink="http://www.w3.org/1999/xlink" x="0px" y="0px"
	 viewBox="2 2 26 26" enable-background="new 2 2 26 26" xml:space="preserve">
<g>
	<path fill="#29303F" d="M15,2.3C8,2.3,2.3,8,2.3,15C2.3,22,8,27.7,15,27.7c7,0,12.7-5.7,12.7-12.7C27.7,8,22,2.3,15,2.3z
		 M23.1,11.7l-8.9,8.9c-0.3,0.3-0.8,0.5-1.1,0.5h-0.8c-0.4,0-0.9-0.2-1.1-0.5L7,16.4c-0.3-0.3-0.3-0.7,0-0.9l1.6-1.6
		c0.3-0.3,0.7-0.3,0.9,0l2.7,2.7c0.3,0.3,0.7,0.3,0.9,0l7.3-7.3c0.3-0.3,0.7-0.3,0.9,0l1.6,1.6C23.3,11,23.3,11.4,23.1,11.7z"/>
</g>
</svg>
