<?xml version="1.0" encoding="utf-8"?>
<!-- Generator: Adobe Illustrator 17.1.0, SVG Export Plug-In . SVG Version: 6.00 Build 0)  -->
<!DOCTYPE svg PUBLIC "-//W3C//DTD SVG 1.1//EN" "http://www.w3.org/Graphics/SVG/1.1/DTD/svg11.dtd">
<svg version="1.1" id="Layer_1" xmlns="http://www.w3.org/2000/svg" xmlns:xlink="http://www.w3.org/1999/xlink" x="0px" y="0px"
	 viewBox="0 0 30 30" enable-background="new 0 0 30 30" xml:space="preserve">
<g id="Your_Icon">
	<path fill="#010101" d="M9,6.5c0,0.6-0.5,1.1-1.1,1.1c-0.6,0-1.1-0.5-1.1-1.1c0-0.6,0.5-1.1,1.1-1.1C8.5,5.4,9,5.9,9,6.5z"/>
	<path fill="#010101" d="M9,10.6c0,0.6-0.5,1.1-1.1,1.1c-0.6,0-1.1-0.5-1.1-1.1c0-0.6,0.5-1.1,1.1-1.1C8.5,9.5,9,10,9,10.6z"/>
	<circle fill="#010101" cx="7.9" cy="14.8" r="1.1"/>
	<path fill="#010101" d="M19.3,7.5h-7.6c-0.6,0-1-0.5-1-1c0-0.6,0.5-1,1-1h7.6c0.6,0,1,0.5,1,1C20.3,7.1,19.9,7.5,19.3,7.5z"/>
	<path fill="#010101" d="M19.3,11.7h-7.6c-0.6,0-1-0.5-1-1c0-0.6,0.5-1,1-1h7.6c0.6,0,1,0.5,1,1C20.3,11.2,19.9,11.7,19.3,11.7z"/>
	<path fill="#010101" d="M19.3,15.8h-7.6c-0.6,0-1-0.5-1-1c0-0.6,0.5-1,1-1h7.6c0.6,0,1,0.5,1,1C20.3,15.4,19.9,15.8,19.3,15.8z"/>
	<circle fill="#010101" cx="7.9" cy="18.7" r="1.1"/>
	<path fill="#010101" d="M19.3,19.7h-7.6c-0.6,0-1-0.5-1-1c0-0.6,0.5-1,1-1h7.6c0.6,0,1,0.5,1,1C20.3,19.3,19.9,19.7,19.3,19.7z"/>
	<path fill="#010101" d="M30,6c0-3.7-1.4-5.1-3.1-5.1H6.2C4.5,0.9,3.1,2.3,3.1,4v19.8h0H0c0,4.6,1.7,5.3,3.8,5.3h2.4h13.4H22
		c1.7,0,3.1-1.4,3.1-3.1V6H30z M23.9,26c0,1-0.8,1.9-1.9,1.9c-1.7,0-2.5-0.4-2.5-4.1h-4.4H4.3V4c0-1,0.8-1.9,1.9-1.9h18.5
		c-0.5,0.8-0.8,2-0.8,3.7c0,0,0,0.1,0,0.1L23.9,26L23.9,26z"/>
</g>
</svg>
