<?xml version="1.0" encoding="utf-8"?>
<!-- Generator: Adobe Illustrator 17.1.0, SVG Export Plug-In . SVG Version: 6.00 Build 0)  -->
<!DOCTYPE svg PUBLIC "-//W3C//DTD SVG 1.1//EN" "http://www.w3.org/Graphics/SVG/1.1/DTD/svg11.dtd">
<svg version="1.1" id="Layer_1" xmlns="http://www.w3.org/2000/svg" xmlns:xlink="http://www.w3.org/1999/xlink" x="0px" y="0px"
	 viewBox="0 0 30 30" enable-background="new 0 0 30 30" xml:space="preserve">
<path fill="#29303F" d="M26.2,21.6c-1.8-0.9-4.5-2.9-8.5-3.5c1-1.1,1.8-2.8,2.6-4.8c0.5-1.2,0.4-2.2,0.4-3.5c0-1.1,0.2-2.7-0.1-3.7
	c-0.7-3.3-2.9-4.3-5.5-4.3s-4.9,0.9-5.7,4c-0.2,1,0,2.6,0,3.7c0,1.5-0.1,2.4,0.4,3.7c0.9,2.1,1.6,3.8,2.6,4.9
	c-3.9,0.7-6.6,2.8-8.4,3.5C0,23.3,0,25.1,0,25.1v3h30v-3C30,25,30,23.2,26.2,21.6z"/>
</svg>
