<?xml version="1.0" encoding="utf-8"?>
<!-- Generator: Adobe Illustrator 17.1.0, SVG Export Plug-In . SVG Version: 6.00 Build 0)  -->
<!DOCTYPE svg PUBLIC "-//W3C//DTD SVG 1.1//EN" "http://www.w3.org/Graphics/SVG/1.1/DTD/svg11.dtd">
<svg version="1.1" id="Layer_1" xmlns="http://www.w3.org/2000/svg" xmlns:xlink="http://www.w3.org/1999/xlink" x="0px" y="0px"
	 viewBox="0 0 30 30" enable-background="new 0 0 30 30" xml:space="preserve">
<g>
	<polygon fill="#29303F" points="5.7,21.1 4.1,19.5 2.8,20.7 5.7,23.6 9.1,20.1 7.8,19 	"/>
	<path fill="#29303F" d="M16.2,0.8L2.4,7.1v9.1C0.9,17.2,0,19,0,20.9c0,3.3,2.7,5.9,5.9,5.9c1.2,0,2.2-0.3,3.1-0.9l7.1,3.1L30,22.9
		V7.1L16.2,0.8z M16.2,2.8l9.5,4.3l-9.5,4.2L6.7,7.1L16.2,2.8z M5.9,25.1c-2.3,0-4.2-1.9-4.2-4.2s1.9-4.2,4.2-4.2s4.2,1.9,4.2,4.2
		C10.1,23.3,8.3,25.1,5.9,25.1z M28.3,21.9l-12.1,5.3l-5.7-2.6c0.8-1,1.4-2.3,1.4-3.7c0-3.3-2.7-5.9-5.9-5.9c-0.6,0-1.2,0.1-1.7,0.2
		V7.8l12,5.5l12-5.5v14.1H28.3z"/>
</g>
</svg>
