<?xml version="1.0" encoding="utf-8"?>
<!-- Generator: Adobe Illustrator 17.1.0, SVG Export Plug-In . SVG Version: 6.00 Build 0)  -->
<!DOCTYPE svg PUBLIC "-//W3C//DTD SVG 1.1//EN" "http://www.w3.org/Graphics/SVG/1.1/DTD/svg11.dtd">
<svg version="1.1" id="Layer_1" xmlns="http://www.w3.org/2000/svg" xmlns:xlink="http://www.w3.org/1999/xlink" x="0px" y="0px"
	 viewBox="0 0 30 30" enable-background="new 0 0 30 30" xml:space="preserve">
<g>
	<path fill="#221F1F" d="M24.6,3.4h-4.4c0-0.6-0.2-1.2-0.6-1.2h-1c0-0.4-0.1-1-0.4-1h-1.7c0.1-0.1,0.2-0.3,0.2-0.5
		c0-0.4-0.4-0.8-0.8-0.8h-1.7c-0.5,0-0.8,0.3-0.8,0.8c0,0.2,0.1,0.3,0.2,0.5h-1.8c-0.3,0-0.4,0.6-0.4,1h-1c-0.4,0-0.5,0.6-0.6,1.2
		H5.4c-1,0-1.9,0.9-1.9,2V28c0,1.1,0.8,2,1.9,2h19.2c1,0,1.9-0.9,1.9-2V5.4C26.5,4.3,25.6,3.4,24.6,3.4z M24.6,27.8
		C24.4,28.1,24,28,24,28L5.8,28c0,0-0.3,0-0.5-0.2c-0.2-0.2-0.2-0.6-0.2-0.6L5.2,6c0,0,0-0.3,0.2-0.5c0.2-0.2,0.5-0.2,0.5-0.2h18.2
		c0,0,0.3,0,0.5,0.2C24.8,5.7,24.8,6,24.8,6v21.1h0C24.8,27.1,24.9,27.6,24.6,27.8z"/>
	<path fill="#221F1F" d="M19.4,12.5c-0.2-0.2-0.5-0.2-0.6,0l-5,5c-0.2,0.2-0.5,0.2-0.6,0l-1.8-1.8c-0.2-0.2-0.5-0.2-0.6,0l-1.1,1.1
		c-0.2,0.2-0.2,0.5,0,0.6l2.9,2.9c0.2,0.2,0.5,0.3,0.8,0.3h0.5c0.2,0,0.6-0.1,0.8-0.3l6.1-6.1c0.2-0.2,0.2-0.5,0-0.6L19.4,12.5z"/>
</g>
</svg>
