<?xml version="1.0" encoding="utf-8"?>
<!-- Generator: Adobe Illustrator 17.1.0, SVG Export Plug-In . SVG Version: 6.00 Build 0)  -->
<!DOCTYPE svg PUBLIC "-//W3C//DTD SVG 1.1//EN" "http://www.w3.org/Graphics/SVG/1.1/DTD/svg11.dtd">
<svg version="1.1" id="Layer_1" xmlns="http://www.w3.org/2000/svg" xmlns:xlink="http://www.w3.org/1999/xlink" x="0px" y="0px"
	 viewBox="0 0 30 30" enable-background="new 0 0 30 30" xml:space="preserve">
<path fill="#010101" d="M15,0.2C6.7,0.2,0,6.8,0,15c0,8.2,6.7,14.8,15,14.8c8.3,0,15-6.6,15-14.8C30,6.8,23.3,0.2,15,0.2z
	 M16.7,19.6l-0.2,0.5l-11.7,0v-1.6c0,0,0-1,2-1.8c1-0.4,2.4-1.5,4.5-1.9c-0.5-0.6-1-1.5-1.4-2.6c-0.2-0.6-0.2-1.2-0.2-1.9
	c0-0.6-0.1-1.4,0-1.9c0.5-1.7,1.7-2.1,3.1-2.1c1.4,0,2.6,0.5,3.1,2.1c0.1,0.5,0,1.4,0,1.9c0,0.8,0,1.3-0.2,1.9
	c-0.4,1.1-0.8,2-1.4,2.6c0.1,0,0.2,0,0.3,0.1l0.6,0.4l2.3,1.5L16.7,19.6z M24.4,20.1l-3.2-2.6l-3.1,2.6l1.2-3.9l-3.2-2.1l3.9,0
	l1.1-4l1.1,4l3.9,0L23,16.2L24.4,20.1z"/>
</svg>
