<?xml version="1.0" encoding="utf-8"?>
<!-- Generator: Adobe Illustrator 17.1.0, SVG Export Plug-In . SVG Version: 6.00 Build 0)  -->
<!DOCTYPE svg PUBLIC "-//W3C//DTD SVG 1.1//EN" "http://www.w3.org/Graphics/SVG/1.1/DTD/svg11.dtd">
<svg version="1.1" id="Layer_1" xmlns="http://www.w3.org/2000/svg" xmlns:xlink="http://www.w3.org/1999/xlink" x="0px" y="0px"
	 viewBox="0 0 30 30" enable-background="new 0 0 30 30" xml:space="preserve">
<g>
	<path fill="#010101" d="M15,0.2C6.7,0.2,0,6.8,0,15c0,8.2,6.7,14.8,15,14.8c8.3,0,15-6.6,15-14.8C30,6.8,23.3,0.2,15,0.2z
		 M22.5,21.7l-17.8,0v-1.8c0,0,0-1.1,2.2-2.1c1.1-0.5,2.7-1.7,5-2.1c-0.6-0.6-1.1-1.7-1.5-2.9c-0.3-0.7-0.2-1.3-0.2-2.1
		c0-0.6-0.1-1.6,0-2.2c0.5-1.9,1.8-2.4,3.4-2.4c1.5,0,2.9,0.5,3.4,2.4c0.2,0.6,0,1.5,0,2.2c0,0.8,0,1.4-0.2,2.1
		c-0.5,1.2-0.9,2.2-1.5,2.9c2.4,0.4,4,1.7,5,2.1c2.2,1,2.2,2.1,2.2,2.1V21.7z M21.8,15.2c-0.5,0-1-0.4-1-0.9s0.4-0.9,1-0.9
		c0.5,0,1,0.4,1,0.9C22.7,14.8,22.3,15.2,21.8,15.2z M23.1,11c-0.4,0.4-0.6,0.6-0.6,1.2v0.5h-1.4V12c0-0.7,0.2-0.9,0.6-1.4l0.9-0.9
		c0.2-0.2,0.3-0.5,0.3-0.8c0-0.6-0.5-1-1.1-1c-0.7,0-1.1,0.5-1.2,1.2l-1.5-0.1c0.2-1.5,1.3-2.4,2.8-2.4c1.4,0,2.5,0.8,2.5,2.3
		C24.4,9.9,23.8,10.4,23.1,11z"/>
</g>
</svg>
