<?xml version="1.0" encoding="utf-8"?>
<!-- Generator: Adobe Illustrator 17.1.0, SVG Export Plug-In . SVG Version: 6.00 Build 0)  -->
<!DOCTYPE svg PUBLIC "-//W3C//DTD SVG 1.1//EN" "http://www.w3.org/Graphics/SVG/1.1/DTD/svg11.dtd">
<svg version="1.1" id="Layer_1" xmlns="http://www.w3.org/2000/svg" xmlns:xlink="http://www.w3.org/1999/xlink" x="0px" y="0px"
	 viewBox="0 0 30 30" enable-background="new 0 0 30 30" xml:space="preserve">
<path fill="#010101" d="M17.6,9.4c-0.1,0.1-2.4,2.1-5.2,4.6c0.4,0.5,1,1.1,1.6,1.7c0.8,0.8,1.5,1.4,2.2,1.9c2.7-3,4.9-5.5,5-5.6
	c0.3-0.3,0.5-0.2,0.7-0.2c2.2,0.6,4.7,0.1,5.9-2.3c1.1-2.2,0.2-3.9-0.5-5.1c-0.2-0.3-0.4-0.1-0.5,0c-0.1,0.2-1.3,2.8-1.3,2.8
	c-0.3,0.7-1.2,1.2-2.8,0.4C20.9,7,20.8,6,21.2,5.3c0,0,1.2-2.5,1.3-2.8c0.2-0.3-0.1-0.4-0.2-0.4c-1.4,0.2-3.2,0.6-4.3,2.8
	c-0.6,1.3-0.6,2.5-0.1,3.6C18,8.6,18,9,17.6,9.4z M7.6,22.3c-0.7-0.7-1.3-1.4-1.9-2.1C3.2,22.3,1.4,24,1.4,24
	c-0.1,0.1-0.2,0.2-0.3,0.3c-1.3,1.4-1.2,3.6,0.3,4.9c1.4,1.3,3.6,1.2,4.9-0.3c0,0,1.6-1.8,3.8-4.3C9.2,23.8,8.3,23,7.6,22.3z
	 M2.9,1.7C0.3,4.3,0.2,7.6,0.2,7.6c0.6,3.2,4.2,9.1,8.6,13.4c4.4,4.4,10.2,7.9,13.4,8.6c0,0,3.3-0.1,5.9-2.7l0,0l1.5-1.5
	c0.2-0.2,0.2-0.5,0-0.7l-6.5-6.5c-0.2-0.2-0.5-0.2-0.7,0l-1.5,1.5l0,0l-1.4,1.8c0,0-2.7-0.6-6.6-4.4c-3.9-3.8-4.4-6.6-4.4-6.6
	l1.8-1.4l0,0l0.1-0.1l0,0l0,0l1.5-1.5c0.2-0.2,0.2-0.5,0-0.7L5.2,0.2C5-0.1,4.6-0.1,4.4,0.2L2.9,1.7L2.9,1.7z"/>
</svg>
