<?xml version="1.0" encoding="utf-8"?>
<!-- Generator: Adobe Illustrator 17.1.0, SVG Export Plug-In . SVG Version: 6.00 Build 0)  -->
<!DOCTYPE svg PUBLIC "-//W3C//DTD SVG 1.1//EN" "http://www.w3.org/Graphics/SVG/1.1/DTD/svg11.dtd">
<svg version="1.1" id="Layer_1" xmlns="http://www.w3.org/2000/svg" xmlns:xlink="http://www.w3.org/1999/xlink" x="0px" y="0px"
	 viewBox="1.5 3 28 28" enable-background="new 1.5 3 28 28" xml:space="preserve">
<g>
	<path fill="#29303F" d="M15.5,3.8C8.2,3.8,2.3,9.7,2.3,17s5.9,13.2,13.2,13.2c7.3,0,13.2-5.9,13.2-13.2S22.8,3.8,15.5,3.8z
		 M23.7,15.9c-0.1,0.1-0.2,0.2-0.3,0.3l-3.7,2.5c-0.1,0-0.2,0.2-0.2,0.3c0,0,0,0.1,0,0.1l1.6,4.8c0,0.1,0.1,0.3,0.1,0.5
		c0,0.1,0,0.3-0.2,0.5c-0.1,0.2-0.4,0.3-0.6,0.3c0,0,0,0,0,0c-0.4,0-0.5-0.2-0.7-0.3l-3.9-3.1c0,0-0.1-0.1-0.2-0.1
		c-0.1,0-0.2,0-0.2,0.1l-3.7,3.1c-0.2,0.1-0.3,0.3-0.7,0.3c-0.2,0-0.5-0.1-0.6-0.3c-0.1-0.2-0.2-0.4-0.2-0.5c0-0.2,0-0.3,0.1-0.4
		l1.5-4.8c0,0,0,0,0-0.1c0-0.1-0.1-0.3-0.2-0.4l-3.7-2.5c-0.1-0.1-0.2-0.2-0.3-0.3c-0.1-0.1-0.2-0.3-0.2-0.6c0-0.2,0.1-0.4,0.2-0.5
		c0.1-0.1,0.2-0.2,0.3-0.2c0.2-0.1,0.4-0.1,0.5-0.1l4.6,0c0,0,0.1,0,0.2-0.1c0.1-0.1,0.1-0.1,0.1-0.2l1.3-4.8c0-0.2,0.1-0.3,0.2-0.4
		c0.1-0.1,0.3-0.4,0.7-0.4c0.4,0,0.6,0.2,0.7,0.4c0.1,0.1,0.1,0.3,0.2,0.4l1.3,4.8c0,0,0.1,0.1,0.1,0.2c0.1,0.1,0.2,0.1,0.2,0.1
		l4.6,0c0.1,0,0.3,0,0.4,0c0.1,0,0.3,0.1,0.5,0.3c0.1,0.1,0.2,0.3,0.2,0.5C23.9,15.6,23.8,15.7,23.7,15.9z"/>
</g>
</svg>
